<svg xmlns="http://www.w3.org/2000/svg" width="54" height="22.243" viewBox="0 0 54 22.243">
  <g id="carte-bleue" transform="translate(-17.814 -50.319)">
    <path id="Tracé_74" data-name="Tracé 74" d="M71.814,55.7a5.377,5.377,0,0,0-5.368-5.376H46.883v10.76H66.446v-.006A5.377,5.377,0,0,0,71.814,55.7Zm0,11.412a5.377,5.377,0,0,0-5.368-5.376H46.883v10.76H66.446v-.007A5.376,5.376,0,0,0,71.814,67.108ZM32.141,61.731v-.652H46.506v-.907a9.781,9.781,0,0,0-9.781-9.781H27.6a9.782,9.782,0,0,0-9.782,9.781v2.609A9.782,9.782,0,0,0,27.6,72.562h9.129a9.781,9.781,0,0,0,9.781-9.781v-1.05Z" transform="translate(0)" fill="#b7833d" fill-rule="evenodd"/>
  </g>
</svg>
