<svg xmlns="http://www.w3.org/2000/svg" width="505" height="152" viewBox="0 0 505 152" version="1.1"><path d="M 157 32.681 C 157 33.107, 160.712 44.621, 165.248 58.267 L 173.496 83.078 180.361 82.789 L 187.226 82.500 195.613 58.037 C 200.226 44.582, 204 33.219, 204 32.787 C 204 32.354, 201.327 32, 198.061 32 L 192.121 32 189.628 40.250 C 188.256 44.788, 185.651 53.675, 183.837 60 C 182.024 66.325, 180.391 70.825, 180.210 70 C 180.028 69.175, 177.520 60.400, 174.636 50.500 L 169.393 32.500 163.196 32.202 C 159.788 32.039, 157 32.254, 157 32.681 M 349 57.500 L 349 83 354.500 83 L 360 83 360 57.500 L 360 32 354.500 32 L 349 32 349 57.500 M 247 40.434 C 247 44.527, 246.789 44.891, 244.250 45.184 C 241.862 45.458, 241.459 45.994, 241.190 49.250 C 240.893 52.834, 241.015 53, 243.940 53 L 247 53 247 65.389 C 247 75.794, 247.286 78.132, 248.786 79.984 C 250.764 82.427, 257.836 84.165, 262.250 83.293 C 264.683 82.813, 265 82.304, 265 78.875 C 265 75.722, 264.643 75, 263.082 75 C 258.278 75, 258 74.366, 258 63.393 L 258 53 261.500 53 C 264.917 53, 265 52.905, 265 49 C 265 45.095, 264.917 45, 261.500 45 C 258.019 45, 258 44.976, 258 40.500 L 258 36 252.500 36 L 247 36 247 40.434 M 212.500 45.890 C 204.928 49.385, 201.837 54.699, 201.814 64.263 C 201.785 76.277, 209.075 84, 220.445 84 C 233.839 84, 241.924 73.068, 238.913 59.031 C 236.342 47.041, 223.668 40.736, 212.500 45.890 M 284.361 45.922 C 282.634 46.975, 280.982 48.435, 280.690 49.168 C 280.397 49.901, 280.122 49.263, 280.079 47.750 C 280.004 45.127, 279.769 45, 275 45 L 270 45 270 64 L 270 83 275.500 83 L 281 83 281 70.500 C 281 55.901, 281.922 54, 289 54 L 293 54 293 49.607 C 293 43.613, 290.144 42.395, 284.361 45.922 M 305.500 45.064 C 296.220 47.796, 291.077 59.873, 294.370 71.200 C 296.794 79.538, 302.986 84, 312.135 84 C 320.732 84, 327.319 79.904, 329.423 73.250 C 330.092 71.136, 329.852 71, 325.462 71 C 321.936 71, 320.059 71.614, 317.818 73.500 C 314.558 76.243, 312.360 76.577, 308.657 74.890 C 306.422 73.871, 304 70.264, 304 67.953 C 304 67.398, 309.428 67, 317 67 L 330 67 329.978 62.750 C 329.954 58.008, 327.290 51.395, 324.355 48.788 C 319.628 44.591, 312.134 43.110, 305.500 45.064 M 376.500 45.442 C 361.266 51.056, 361.138 77.183, 376.315 82.933 C 380.232 84.418, 388.429 84.265, 392.329 82.636 C 399.524 79.630, 403.592 71.463, 402.714 61.788 C 402.087 54.863, 398.665 48.912, 393.892 46.444 C 389.450 44.147, 381.290 43.677, 376.500 45.442 M 417.469 45.031 C 410.223 47.213, 406.523 53.643, 406.539 64.023 C 406.552 72.694, 408.490 77.066, 413.952 80.747 C 419.326 84.368, 430.565 83.160, 432.331 78.771 C 432.612 78.072, 432.871 79.300, 432.906 81.500 C 432.983 86.369, 432.296 87.557, 428.586 88.967 C 425.232 90.242, 419.521 88.801, 418.620 86.452 C 418.055 84.979, 409.036 84.297, 407.707 85.627 C 407.362 85.972, 407.728 87.507, 408.520 89.038 C 413.501 98.671, 431.012 100.595, 439.869 92.483 L 443.500 89.157 443.804 67.079 L 444.108 45 438.961 45 C 434.695 45, 433.725 45.335, 433.302 46.953 C 432.799 48.875, 432.751 48.876, 430.146 47.007 C 426.879 44.662, 421.486 43.821, 417.469 45.031 M 460.684 45.389 C 455.669 47.256, 453.119 49.626, 450.881 54.500 C 447.018 62.912, 449.313 74.720, 455.887 80.252 C 461.731 85.169, 473.245 85.339, 479.459 80.599 C 484.850 76.487, 486.457 72.688, 486.480 64 C 486.503 55.312, 484.268 50.565, 478.468 46.980 C 474.077 44.267, 465.710 43.518, 460.684 45.389 M 215.466 55.037 C 212.823 57.958, 212.191 68.116, 214.439 71.547 C 217.694 76.515, 224.569 76.435, 226.862 71.403 C 228.794 67.164, 228.288 58.636, 225.927 55.635 C 223.324 52.325, 218.186 52.032, 215.466 55.037 M 306.807 54.750 C 305.980 55.712, 305.025 57.288, 304.683 58.250 C 304.128 59.816, 304.849 60, 311.531 60 C 318.124 60, 319 59.784, 319 58.155 C 319 53.539, 310.004 51.027, 306.807 54.750 M 379.736 54.250 C 376.050 57.049, 374.986 64.636, 377.452 70.538 C 380.341 77.454, 388.083 77.022, 390.831 69.792 C 392.594 65.151, 391.632 57.632, 388.928 54.928 C 386.734 52.734, 382.175 52.398, 379.736 54.250 M 422.315 54.007 C 419.183 55.269, 418 58.098, 418 64.323 C 418 72.371, 421.351 75.498, 428.079 73.727 C 431.176 72.911, 433 69.306, 433 64 C 433 58.931, 431.382 55.495, 428.343 54.110 C 425.531 52.829, 425.250 52.825, 422.315 54.007 M 463.736 54.250 C 460.050 57.049, 458.986 64.636, 461.452 70.538 C 464.341 77.454, 472.083 77.022, 474.831 69.792 C 476.598 65.141, 475.681 58.108, 472.922 55.146 C 470.696 52.758, 466.270 52.326, 463.736 54.250" stroke="none" fill="#513a1a" fill-rule="evenodd"/><path d="M 36.557 33.223 C 35.313 34.999, 35 38.514, 35 50.723 C 35 59.125, 34.632 66, 34.182 66 C 33.733 66, 30.808 68.380, 27.682 71.288 L 22 76.577 22 92.788 C 22 102.929, 21.626 109, 21 109 C 20.444 109, 20 111.667, 20 115 C 20 120.333, 20.222 121, 22 121 C 23.619 121, 24 120.333, 24 117.500 L 24 114 39.500 114 L 55 114 55 117.500 C 55 120.567, 55.310 121, 57.500 121 C 59.889 121, 60 120.733, 60 115 C 60 109.631, 59.786 109, 57.964 109 C 56.005 109, 56.023 108.860, 58.459 105.275 C 59.852 103.226, 61.276 99.401, 61.624 96.775 L 62.258 92 86.474 92 C 108.664 92, 110.828 91.847, 112.345 90.171 C 113.799 88.564, 114 85.056, 114 61.243 C 114 37.940, 113.780 33.923, 112.429 32.571 C 111.058 31.200, 106.217 31, 74.485 31 L 38.113 31 36.557 33.223 M 40.680 35.654 C 40.306 36.028, 40 45.350, 40 56.370 L 40 76.406 43.792 72.703 C 48.273 68.328, 51.092 68.031, 53.927 71.635 C 56.654 75.101, 56.649 80.906, 53.915 84.381 L 51.830 87.031 80.665 86.765 L 109.500 86.500 109.500 61 L 109.500 35.500 75.430 35.237 C 56.691 35.092, 41.053 35.280, 40.680 35.654 M 65.763 39.565 C 62.794 41.176, 61.434 44.640, 62.477 47.928 C 63.045 49.717, 62.715 50, 60.067 50 L 57 50 57 57.500 C 57 61.833, 57.422 65, 58 65 C 58.578 65, 59 68.167, 59 72.500 L 59 80 77 80 L 95 80 95 72.559 C 95 68.466, 95.450 64.840, 96 64.500 C 96.550 64.160, 97 60.759, 97 56.941 C 97 50.006, 96.998 50, 94.201 50 C 91.625 50, 91.432 49.737, 91.785 46.715 C 92.238 42.832, 89.782 39.388, 85.908 38.474 C 83.966 38.016, 82.495 38.554, 80.035 40.624 C 77.178 43.028, 76.609 43.187, 75.627 41.856 C 74.435 40.238, 70.688 37.973, 69.316 38.040 C 68.867 38.062, 67.268 38.748, 65.763 39.565 M 67.380 44.452 C 66.620 46.433, 67.709 47.939, 70.736 49.090 C 74.109 50.372, 74.461 49.791, 72.548 46.093 C 70.859 42.826, 68.314 42.018, 67.380 44.452 M 81.484 46.031 C 79.463 49.938, 80.058 50.633, 84.019 48.992 C 86.282 48.055, 87.022 47.158, 86.801 45.618 C 86.316 42.241, 83.324 42.473, 81.484 46.031 M 61.725 56.942 C 61.040 59.561, 61.677 60, 66.167 60 C 69.589 60, 70 59.732, 70 57.500 C 70 55.263, 69.592 55, 66.117 55 C 63.113 55, 62.118 55.440, 61.725 56.942 M 75 65.500 C 75 75.333, 75.127 76, 77 76 C 78.873 76, 79 75.333, 79 65.500 C 79 55.667, 78.873 55, 77 55 C 75.127 55, 75 55.667, 75 65.500 M 83 57.500 C 83 59.796, 83.367 60, 87.500 60 C 91.633 60, 92 59.796, 92 57.500 C 92 55.204, 91.633 55, 87.500 55 C 83.367 55, 83 55.204, 83 57.500 M 64 69.500 C 64 71.975, 63.888 74.338, 63.750 74.750 C 63.612 75.162, 64.963 75.641, 66.750 75.813 L 70 76.127 70 70.563 C 70 65.049, 69.974 65, 67 65 C 64.111 65, 64 65.167, 64 69.500 M 83 70.500 L 83 76 86.500 76 L 90 76 90 70.500 L 90 65 86.500 65 L 83 65 83 70.500 M 30.245 75.632 L 26 79.765 26 94.382 L 26 109 38.383 109 C 49.276 109, 50.841 108.789, 51.381 107.250 C 51.718 106.287, 53.121 103.971, 54.497 102.102 C 55.994 100.070, 57 97.357, 57 95.352 C 57 92.228, 56.776 92, 53.707 92 C 50.665 92, 50.326 92.332, 49.247 96.367 C 48.319 99.836, 47.371 101.071, 44.638 102.367 C 39.975 104.580, 39 104.431, 39 101.500 C 39 100, 39.571 99, 40.429 99 C 43.192 99, 45 95.955, 45 91.300 C 45 87.514, 45.581 86.100, 48.427 82.949 C 51.784 79.233, 52.304 75.924, 49.775 74.361 C 49.235 74.027, 45.265 77.260, 40.953 81.547 C 34.134 88.326, 32.906 89.167, 31.514 88.012 C 30.073 86.816, 30.195 86.377, 32.743 83.592 C 35.221 80.883, 35.504 79.942, 35.031 76 L 34.490 71.500 30.245 75.632 M 158 112 L 158 125 165.389 125 C 170.949 125, 173.316 124.565, 174.949 123.242 C 177.927 120.831, 178.050 115.269, 175.177 112.942 C 173.321 111.439, 173.235 111.050, 174.520 109.983 C 176.073 108.695, 176.489 104.278, 175.235 102.400 C 173.731 100.148, 169.960 99, 164.066 99 L 158 99 158 112 M 276 103.700 C 276 107.356, 275.733 108.133, 274.800 107.200 C 272.782 105.182, 268.098 105.811, 265.455 108.455 C 262.726 111.184, 262.130 116.996, 264.130 121.385 C 265.389 124.148, 270.215 126.603, 272.099 125.439 C 272.770 125.024, 275.047 124.752, 277.160 124.835 L 281 124.986 281 111.993 L 281 99 278.500 99 C 276.188 99, 276 99.353, 276 103.700 M 163 106.500 C 163 109.827, 163.172 110, 166.465 110 C 168.865 110, 170.247 109.407, 170.963 108.069 C 172.344 105.489, 169.872 103, 165.929 103 C 163.248 103, 163 103.297, 163 106.500 M 182.913 107.282 C 178.416 110.734, 177.666 118.337, 181.394 122.672 C 183.307 124.896, 184.633 125.455, 188 125.455 C 193.310 125.455, 197 121.740, 197 116.395 C 197 112.311, 194.766 107.508, 192.455 106.621 C 189.822 105.611, 184.621 105.971, 182.913 107.282 M 199 115.500 C 199 124.920, 199.021 125, 201.454 125 C 203.784 125, 203.924 124.663, 204.204 118.354 C 204.515 111.381, 206.024 109.028, 209.364 110.309 C 210.664 110.808, 211 112.381, 211 117.969 C 211 124.802, 211.070 125, 213.500 125 C 215.944 125, 216 124.833, 216 117.500 C 216 111.333, 215.644 109.644, 214 108 C 211.778 105.778, 207.051 105.349, 205.200 107.200 C 204.267 108.133, 204 108.133, 204 107.200 C 204 106.540, 202.875 106, 201.500 106 C 199.009 106, 199 106.033, 199 115.500 M 229.299 107.503 C 221.255 113.137, 227.109 127.946, 236.453 125.601 C 239.257 124.897, 243 121.302, 243 119.311 C 243 117.518, 239.073 117.646, 238.376 119.462 C 237.459 121.853, 234.061 122.366, 231.928 120.435 C 229.807 118.516, 229.431 114.932, 231.035 111.934 C 232.268 109.630, 236.806 109.332, 237.638 111.500 C 238.284 113.183, 243 113.583, 243 111.955 C 243 111.380, 241.895 109.805, 240.545 108.455 C 237.699 105.608, 232.619 105.178, 229.299 107.503 M 247 108 C 245.900 109.100, 245 110.450, 245 111 C 245 112.338, 248.322 112.278, 249.685 110.915 C 251.280 109.320, 255.427 110.223, 255.813 112.250 C 256.087 113.685, 255.413 114, 252.073 114 C 246.138 114, 242.154 118.689, 244.765 122.600 C 246.146 124.668, 250.057 126.117, 252.288 125.387 C 253.504 124.989, 255.963 124.754, 257.750 124.863 L 261 125.063 261 118.166 C 261 109.274, 258.827 106, 252.927 106 C 250.333 106, 248.321 106.679, 247 108 M 286.672 108.043 C 279.120 113.984, 284.873 127.745, 293.961 125.478 C 299.017 124.216, 302.270 119, 298 119 C 296.900 119, 296 119.441, 296 119.981 C 296 121.584, 291.115 122.340, 289.487 120.989 C 286.190 118.253, 287.764 117, 294.500 117 C 301.542 117, 301.937 116.594, 299.961 111.397 C 297.852 105.850, 291.498 104.247, 286.672 108.043 M 305 108 C 302.316 110.684, 302.481 112, 305.500 112 C 306.875 112, 308 111.520, 308 110.934 C 308 109.111, 313.454 110.346, 313.815 112.250 C 314.087 113.685, 313.412 114, 310.073 114 C 307.333 114, 305.345 114.655, 304 116 C 301.341 118.659, 301.479 120.570, 304.550 123.641 C 306.578 125.668, 307.654 126.041, 309.800 125.460 C 311.285 125.057, 314.011 124.806, 315.858 124.902 L 319.215 125.077 318.846 116.950 C 318.546 110.343, 318.116 108.558, 316.547 107.411 C 313.662 105.301, 307.378 105.622, 305 108 M 322 113.809 C 322 123.132, 323.172 125.318, 328.085 125.162 C 329.963 125.102, 332.962 125.041, 334.750 125.026 L 338 124.999 338 115.499 C 338 106.667, 337.860 106, 336 106 C 334.207 106, 334 106.667, 334 112.429 C 334 118.852, 332.562 122, 329.629 122 C 327.010 122, 326 119.440, 326 112.800 C 326 106.667, 325.804 106, 324 106 C 322.171 106, 322 106.667, 322 113.809 M 185.058 111.430 C 183.356 113.481, 184.145 120.075, 186.250 121.394 C 190.048 123.773, 193.569 118.220, 191.729 112.750 C 190.696 109.677, 187.103 108.966, 185.058 111.430 M 268.557 112.223 C 267.701 113.445, 267 115.145, 267 116 C 267 118.191, 269.847 122, 271.485 122 C 273.861 122, 276 118.981, 276 115.629 C 276 110.036, 271.523 107.987, 268.557 112.223 M 289.243 111.157 C 287.124 113.276, 287.845 114, 292.073 114 C 295.412 114, 296.087 113.685, 295.815 112.250 C 295.414 110.135, 290.999 109.401, 289.243 111.157 M 163 117.557 C 163 121.112, 163.004 121.115, 167.148 120.807 C 174.991 120.226, 174.743 114, 166.878 114 C 163.101 114, 163 114.092, 163 117.557 M 250.104 117.914 C 248.257 119.084, 249.445 122, 251.769 122 C 253.902 122, 256 120.165, 256 118.300 C 256 116.827, 252.213 116.579, 250.104 117.914 M 308.104 117.914 C 306.257 119.084, 307.445 122, 309.769 122 C 311.902 122, 314 120.165, 314 118.300 C 314 116.827, 310.213 116.579, 308.104 117.914" stroke="none" fill="#b28244" fill-rule="evenodd"/></svg>