<svg xmlns="http://www.w3.org/2000/svg" width="54" height="32.052" viewBox="0 0 54 32.052">
  <g id="mastercard" transform="translate(538.164 -76.046)">
    <path id="Union_1" data-name="Union 1" d="M37,32.052a16.334,16.334,0,0,1-10.345-3.681,16.14,16.14,0,0,1-4.774,2.706,16.551,16.551,0,0,1-5.624.974,16.317,16.317,0,0,1-11.5-4.694,16.192,16.192,0,0,1-1.986-2.372,15.98,15.98,0,0,1-1.5-2.722,15.869,15.869,0,0,1,0-12.476,15.972,15.972,0,0,1,1.5-2.722A16.314,16.314,0,0,1,16.26,0a16.551,16.551,0,0,1,5.624.975,16.134,16.134,0,0,1,4.774,2.706A16.337,16.337,0,0,1,37,0h.026A16.287,16.287,0,0,1,50.509,7.066a15.96,15.96,0,0,1,1.5,2.723,15.866,15.866,0,0,1,0,12.476,15.954,15.954,0,0,1-1.5,2.722,16.239,16.239,0,0,1-4.392,4.329,16.333,16.333,0,0,1-9.091,2.737ZM31.837,20.635a15.6,15.6,0,0,1-1.712,3.747,16.4,16.4,0,0,1-2.588,3.16,15.178,15.178,0,0,0,20.143-1.016,14.788,14.788,0,0,0,3.229-4.72,14.7,14.7,0,0,0,0-11.56,14.79,14.79,0,0,0-3.229-4.72A15.161,15.161,0,0,0,27.537,4.51a16.393,16.393,0,0,1,2.588,3.16,15.588,15.588,0,0,1,1.712,3.747H30.585a14.514,14.514,0,0,0-1.6-3.329,15.132,15.132,0,0,0-2.354-2.81A14.83,14.83,0,0,0,22.7,11.41H21.451A16.021,16.021,0,0,1,25.708,4.52a15.383,15.383,0,0,0-4.349-2.446,14.89,14.89,0,0,0-5.1-.9A15.128,15.128,0,0,0,5.607,5.526a14.786,14.786,0,0,0-3.229,4.72,14.7,14.7,0,0,0,0,11.559,14.787,14.787,0,0,0,3.229,4.72,15.14,15.14,0,0,0,15.752,3.452,15.37,15.37,0,0,0,4.348-2.447,16.014,16.014,0,0,1-4.256-6.889H22.7a14.743,14.743,0,0,0,1.578,3.306,14.906,14.906,0,0,0,2.35,2.826,15.119,15.119,0,0,0,2.354-2.809,14.5,14.5,0,0,0,1.6-3.329h1.252Zm20.772,2.42a.681.681,0,0,1,.7-.675v.113a.564.564,0,1,0,.556.562.551.551,0,0,0-.556-.562V22.38a.677.677,0,1,1-.7.675Zm.552.392h-.12v-.781h.3c.191,0,.28.071.28.222a.206.206,0,0,1-.206.215l.225.344h-.134l-.209-.338h-.138v.338h0Zm0-.439H53.3c.105,0,.193-.009.193-.127,0-.077-.057-.115-.172-.115h-.163ZM37.481,19.53a1.652,1.652,0,0,1-1.219-.535,1.353,1.353,0,0,1-.3-1.134,2.1,2.1,0,0,1,1.23-1.618,4.043,4.043,0,0,1,1.693-.305c.115,0,.217,0,.311.005h.046c.067,0,.13,0,.179,0,.033,0,.058,0,.077,0a.679.679,0,0,0-.059-.576c-.141-.175-.423-.181-.721-.186l-.152,0-.1,0a13.239,13.239,0,0,0-1.427.13c-.14.018-.271.035-.362.044l.233-1.187h0l.009,0a9.528,9.528,0,0,1,1.725-.183l.246-.008a2.326,2.326,0,0,1,1.873.652,2.309,2.309,0,0,1,.265,1.9l-.6,2.988H39.012l-.194-.306a1.994,1.994,0,0,1-1.264.326l-.072,0Zm.462-2.339a.841.841,0,0,0-.433.727.444.444,0,0,0,.317.365.863.863,0,0,0,.306.053,1.183,1.183,0,0,0,.633-.192.79.79,0,0,0,.363-.493l.117-.594-.09-.015h-.007a2.693,2.693,0,0,0-.484-.053A1.253,1.253,0,0,0,37.943,17.191Zm-27.333,1.8a1.355,1.355,0,0,1-.3-1.134,2.1,2.1,0,0,1,1.23-1.618,4.045,4.045,0,0,1,1.694-.305c.115,0,.217,0,.311.005h.046c.067,0,.13,0,.179,0,.033,0,.058,0,.077,0a.68.68,0,0,0-.059-.576c-.141-.175-.423-.18-.721-.186H13.06l-.147,0-.094,0a13.264,13.264,0,0,0-1.428.13c-.147.019-.274.035-.363.044l.234-1.187h0l.008,0A9.567,9.567,0,0,1,13,13.981l.245-.008a2.326,2.326,0,0,1,1.874.653,2.3,2.3,0,0,1,.264,1.895l-.6,2.988H13.36l-.195-.306a1.989,1.989,0,0,1-1.263.326l-.074,0A1.654,1.654,0,0,1,10.61,18.995Zm1.681-1.8a.84.84,0,0,0-.433.726.444.444,0,0,0,.317.365.863.863,0,0,0,.306.053,1.184,1.184,0,0,0,.633-.192.789.789,0,0,0,.363-.493l.117-.594-.1-.017a2.693,2.693,0,0,0-.484-.053A1.251,1.251,0,0,0,12.292,17.192Zm7.739,1.9a1.468,1.468,0,0,1-.218-1.271l1.049-5.21h1.516l-.311,1.456h.816l-.272,1.188h-.777l-.428,2.221c-.063.343,0,.472.063.546a.568.568,0,0,0,.456.152,2.114,2.114,0,0,0,.318-.027l-.1,1.111a2.22,2.22,0,0,1-1.127.268A1.365,1.365,0,0,1,20.031,19.095Zm5.028.414a2.444,2.444,0,0,1-1.952-.769,2.8,2.8,0,0,1-.575-2.008c0-.009,0-.02.005-.032v-.006a4.023,4.023,0,0,1,.544-1.52,2.527,2.527,0,0,1,2.268-1.181,2.244,2.244,0,0,1,1.807.651,2.96,2.96,0,0,1,.272,2.413h-3.3a1.088,1.088,0,0,0,.177.9,1.442,1.442,0,0,0,1.114.31h.108a11.11,11.11,0,0,0,1.71-.134L27,19.26a4.813,4.813,0,0,1-1.742.252C25.191,19.512,25.123,19.511,25.059,19.509Zm-.836-3.447h1.885a.941.941,0,0,0-.135-.781.678.678,0,0,0-.545-.215,1.154,1.154,0,0,0-1.195.957.006.006,0,0,0,0,0v.008h0v0l0,.007v0l0,.013h0ZM17.156,19.51h-.065a6.223,6.223,0,0,1-1.788-.192l.214-1.13a4.064,4.064,0,0,0,1.242.161c.228,0,.428-.011.575-.019.081,0,.145-.008.185-.008a.412.412,0,0,0,.427-.317.446.446,0,0,0-.232-.507c-.107-.053-.214-.114-.338-.184a8.173,8.173,0,0,0-.886-.448.906.906,0,0,1-.478-.472,1.827,1.827,0,0,1-.047-1.117,1.523,1.523,0,0,1,1.13-1.132,3.741,3.741,0,0,1,1.156-.17h.026l.1,0c.052,0,.115,0,.185,0a3.417,3.417,0,0,1,1.215.216l-.35,1.111h0a4.15,4.15,0,0,0-.99-.1,4.767,4.767,0,0,0-.5.023c-.148.04-.327.13-.342.328a.534.534,0,0,0,.322.476A8.6,8.6,0,0,1,19,16.617a1.073,1.073,0,0,1,.418.434,1.467,1.467,0,0,1,.107.907,1.633,1.633,0,0,1-1.006,1.329,3.138,3.138,0,0,1-1.264.223ZM8.911,14.836,6.792,19.509H5.354l-.408-4.788-.933,4.788H2.5l1.3-6.627H6.229L6.52,16.9l1.847-4.022h2.487L9.591,19.509H8.016Zm40.517,4.673H47.8l-.2-.44a2.676,2.676,0,0,1-1.321.44,1.559,1.559,0,0,1-1.2-.679,2.586,2.586,0,0,1-.474-1.108,3.039,3.039,0,0,1,.084-1.392,3.469,3.469,0,0,1,1.231-2,2.316,2.316,0,0,1,1.355-.338h.29a1.2,1.2,0,0,1,.971.452,1.658,1.658,0,0,0,.215.2l.408-2.107H50.75l-1.321,6.971h0ZM46.807,15.63a2.11,2.11,0,0,0-.565.987,1.2,1.2,0,0,0,.166,1.061.781.781,0,0,0,.611.318.949.949,0,0,0,.7-.3,2.446,2.446,0,0,0,.483-.807,1.782,1.782,0,0,0-.1-1.341.65.65,0,0,0-.535-.266A1.15,1.15,0,0,0,46.807,15.63ZM31.7,18.489a3.417,3.417,0,0,1-.387-3.156A3.808,3.808,0,0,1,32.8,13.19a3.409,3.409,0,0,1,1.859-.635h.076a3.218,3.218,0,0,1,1.361.3,2.512,2.512,0,0,1,.719.582l-.992.977a1.955,1.955,0,0,0-1.166-.267,2.074,2.074,0,0,0-1.846,1.819A1.835,1.835,0,0,0,33.14,17.5a1.509,1.509,0,0,0,1.184.483,2.86,2.86,0,0,0,.9-.158l.447,1.341a4.125,4.125,0,0,1-1.846.344A2.689,2.689,0,0,1,31.7,18.489Zm-4.229,1.02,1.03-5.439h1.3l.136.536a1.822,1.822,0,0,1,1.437-.536l-.389,1.436c-.369,0-1.089-.115-1.535,1.513l-.466,2.49Zm15.077,0H41.019l1.04-5.495h1.315l.138.542a1.828,1.828,0,0,1,1.452-.542l-.412,1.432h-.128a1.021,1.021,0,0,0-.7.223,2.562,2.562,0,0,0-.706,1.326L42.55,19.5h0Z" transform="translate(-538.164 76.046)" fill="#b7833d"/>
  </g>
</svg>
