<svg xmlns="http://www.w3.org/2000/svg" width="54" height="22.396" viewBox="0 0 54 22.396">
  <g id="stripe-3" transform="translate(0 -0.667)">
    <path id="Tracé_75" data-name="Tracé 75" d="M5.643,10.741c-1.164-.43-1.8-.765-1.8-1.291,0-.446.367-.7,1.02-.7a7.842,7.842,0,0,1,3.268.877l.478-2.949a9.189,9.189,0,0,0-3.937-.845,5.045,5.045,0,0,0-3.252,1A3.572,3.572,0,0,0,.159,9.705c0,2.168,1.323,3.092,3.475,3.874,1.387.494,1.849.845,1.849,1.387,0,.526-.446.829-1.259.829A8.781,8.781,0,0,1,.478,14.663L0,17.644a9.716,9.716,0,0,0,4.431,1.068,5.41,5.41,0,0,0,3.4-.972,3.7,3.7,0,0,0,1.355-3.076c0-2.216-1.355-3.14-3.539-3.921ZM16.967,9l.478-2.933H14.92V2.51l-3.394.559-.49,3-1.194.194L9.395,9h1.636v5.755a3.841,3.841,0,0,0,1.164,3.172,4.522,4.522,0,0,0,2.917.781,7.34,7.34,0,0,0,2.072-.287V15.316a5.439,5.439,0,0,1-1.148.175c-.781,0-1.116-.4-1.116-1.307V9h2.046Zm7.582-3.1a2.358,2.358,0,0,0-2.359,1.638L21.95,6.071H18.491v12.4h3.953v-8.05A2.548,2.548,0,0,1,24.6,9.6a3.787,3.787,0,0,1,.7.048V6A3.22,3.22,0,0,0,24.548,5.9Zm3.7-1.056a2.088,2.088,0,1,0-2.088-2.088,2.082,2.082,0,0,0,2.088,2.088ZM26.254,6.071h3.969v12.4H26.254ZM41.471,7.187a3.472,3.472,0,0,0-2.917-1.355,4.116,4.116,0,0,0-3.092,1.482l-.207-1.243H31.779V23.063l3.953-.653V18.425a6.039,6.039,0,0,0,1.785.287,4.716,4.716,0,0,0,3.539-1.466,7.722,7.722,0,0,0,1.61-5.34,7.672,7.672,0,0,0-1.2-4.718Zm-3.284,7.651a1.552,1.552,0,0,1-1.387.925,2.339,2.339,0,0,1-1.068-.239v-5.9a2.151,2.151,0,0,1,1.5-.781c1,0,1.5,1.084,1.5,3.2a5.728,5.728,0,0,1-.542,2.79ZM54,12.16a7.5,7.5,0,0,0-1.275-4.639,4.542,4.542,0,0,0-3.794-1.69c-3.364,0-5.452,2.487-5.452,6.472a6.685,6.685,0,0,0,1.658,4.973,5.861,5.861,0,0,0,4.24,1.435,8.009,8.009,0,0,0,4.24-1.052l-.43-2.71a7.016,7.016,0,0,1-3.379.813,2.415,2.415,0,0,1-1.674-.494,2.488,2.488,0,0,1-.733-1.737h6.551c.016-.191.048-1.084.048-1.371Zm-6.631-1.052c.112-1.769.59-2.6,1.5-2.6.893,0,1.355.845,1.419,2.6Z" fill="#b7833d" fill-rule="evenodd"/>
  </g>
</svg>
