<svg xmlns="http://www.w3.org/2000/svg" width="54" height="17.519" viewBox="0 0 54 17.519">
  <g id="visa-2" transform="translate(-11.226 -51.519)">
    <path id="Tracé_54" data-name="Tracé 54" d="M34.636,68.746H30.229l2.754-16.924H37.39ZM26.522,51.821l-4.2,11.641-.5-2.507h0l-1.483-7.611a1.886,1.886,0,0,0-2.09-1.524H11.307l-.081.287a16.484,16.484,0,0,1,4.609,1.934l3.828,14.7h4.591l7.01-16.925H26.522ZM61.18,68.746h4.046L61.7,51.821H58.156a2.025,2.025,0,0,0-2.034,1.261L49.551,68.746h4.593l.919-2.514h5.6Zm-4.849-5.987,2.315-6.334,1.3,6.334ZM49.9,55.891l.629-3.634a12.718,12.718,0,0,0-3.963-.738c-2.187,0-7.379.956-7.379,5.6,0,4.372,6.094,4.427,6.094,6.723s-5.467,1.885-7.271.437l-.655,3.8a12.348,12.348,0,0,0,4.974.956c3.007,0,7.543-1.557,7.543-5.794,0-4.4-6.149-4.81-6.149-6.723s4.292-1.668,6.177-.629Z" transform="translate(0 0)" fill="#b7833d"/>
    <path id="Tracé_55" data-name="Tracé 55" d="M21.924,61.406l-1.5-7.682a1.9,1.9,0,0,0-2.11-1.538H11.308l-.082.289a17.232,17.232,0,0,1,6.6,3.314A13.32,13.32,0,0,1,21.924,61.406Z" transform="translate(0 -0.362)" fill="#b7833d"/>
  </g>
</svg>
